<svg xmlns="http://www.w3.org/2000/svg" version="1.1" xmlns:xlink="http://www.w3.org/1999/xlink" width="2000" height="486" viewBox="0 0 2000 486"><rect width="2000" height="486" x="0" y="0" id="background" stroke="transparent" fill="#ffffff"></rect><svg xml:space="preserve" width="2000" height="486" data-version="2" data-id="lg_lICq0RsFbGN8hbCyu4" viewBox="0 0 761 486" x="0" y="0"><rect width="100%" height="100%" fill="transparent"></rect><rect width="579" height="144.64" x="-289.5" y="-72.32" fill="none" rx="0" ry="0" transform="translate(294.97 369.71)"></rect><path d="m55 443.38-33.38.16.17-2.32 8.63-1.16q1.16-.17 1.99-2.16l35.87-110.76h10.96l38.19 113.08 11.46.67q0 .16-.17 2.49l-33.21.16q0-1.49.17-2.32l8.63-1.16q1.33-.17 1.33-2L96.51 411H44.7l-8.8 28.89 19.26 1q0 .16-.16 2.49m40.35-35.7L69.44 330.3 45.7 407.68zm51.47-77.05-8.8-1 .17-2.49h40.51q22.42 0 35.95 13.04 13.54 13.03 13.54 42.42 0 29.06-9.47 43.51-8.3 12.62-25.9 15.94-7.81 1.33-18.27 1.33h-3.15l-33.38.16.17-2.32 8.63-1.16q1.66-.17 1.99-2.16V332.96q-.33-2.16-1.99-2.33m31.05-1h-17.76v111.26h13.61q7.97 0 13.53-.92 5.57-.91 11.63-4.31 6.06-3.41 9.55-9.39 8.46-14.11 8.46-42.84 0-29.88-11.79-42.34-10.79-11.46-27.23-11.46m63.61 55.96q0-27.4 14.03-43.67t34.95-16.27q48.99 0 48.99 59.94 0 27.57-13.95 43.42-13.95 15.86-35.04 15.86-48.98 0-48.98-59.28m11.29-.33q0 56.29 37.69 56.29 16.28 0 26.99-14.94 10.71-14.95 10.71-41.35 0-56.29-37.7-56.29-16.1 0-26.9 15.11-10.79 15.11-10.79 41.18m101.62-56.12.34-2h34.53q20.43 0 30.31 6.98 9.88 6.97 9.88 26.32 0 19.34-10.21 28.56-10.22 9.21-29.98 9.21h-12.78v42.01l11.46.67q0 .16-.17 2.49l-33.21.16q0-1.49.17-2.32l8.63-1.16q1.16-.17 1.83-1.5V332.29q-.67-1.49-1.83-1.66l-8.8-1q-.17-.16-.17-.49m34.04.49h-11.95v66.09h11.95q14.95 0 22.34-7.97t7.39-26.65-7.31-25.07q-7.31-6.4-22.42-6.4m85.34 108.27V330.46h-28.56l-2.65 21.92-3.16-1.33 1.66-20.59h-.17l.34-1.32.16-2 .33.17v-.17h75.39l2.16 23.91-3.32 1.33-2.66-21.92h-29.06v109.76l12.13.67q0 .16-.17 2.49l-33.21.16q0-1.49.17-2.32l8.63-1.16q1.66-.17 1.99-2.16m63.93-107.27-8.8-1 .17-2.49h21.92l39.68 84.19 39.02-84.19h21.92q0 .34.17 1.17.16.83 0 1.32l-8.8 1q-1.66.17-2 2.16v107.43l12.29.67q0 .16-.16 2.49l-33.38.16.17-2.32 8.63-1.16q1.66-.17 1.99-2V333.12l-37.86 81.86-3.32 6.65h-3.82l-42.01-88.67v106.93l18.93 1q0 .16-.16 2.49l-33.38.16.17-2.32 8.63-1.16q1.66-.17 1.99-2.16V332.79q-.33-1.99-1.99-2.16m137.83 0-8.8-1 .17-2.49h71.07l-.17.5 2.16 23.41-3.32 1.33-2.66-21.92h-45.16v53.64h39.68q.83.16 1.5-.42.66-.58.66-1.57l.66-11.46 2.66-.33v28.39q-.16 0-2.49.17l-.66-11.46h-42.01v52.64h49.65l3.15-26.57 3.15.83-2.49 29.06h-42.17l-33.38.16.17-2.32 8.63-1.16q1.66-.17 1.99-2.16V332.79q-.33-1.99-1.99-2.16"></path><path stroke="#000" stroke-width="4.47" d="M13.704 275.77h723.472"></path><path d="M427.931 171.947h-31.178V140.77a10.414 10.414 0 0 0-10.376-10.389h-10.389A10.414 10.414 0 0 0 365.6 140.77v31.178h-31.191a10.414 10.414 0 0 0-10.389 10.376v10.389a10.414 10.414 0 0 0 10.389 10.388h31.178v31.179a10.414 10.414 0 0 0 10.376 10.401h10.389a10.414 10.414 0 0 0 10.388-10.389v-31.178h31.179a10.414 10.414 0 0 0 10.401-10.376v-10.414a10.414 10.414 0 0 0-10.389-10.389m-291.062 87.422c0 6.237-.891 8.91-3.861 14.256H11.535c3.267-20.196 28.215-60.885 30.294-60.291 10.395 3.861 30.294 7.425 36.531-14.256 2.079-6.831 4.158-30.294-.891-44.253 8.316 19.899 35.937 29.7 35.937 29.7 5.643 3.267 7.425 12.771.891 12.474-.297 0-18.117 3.861-21.384 2.97 3.267 2.673 20.196 13.365 27.621 14.256l-35.343 13.662c7.128 1.188 36.234 1.782 43.362 1.485-1.782 2.376-24.354 8.613-29.106 18.117-1.782 3.267 26.433-5.643 37.422 11.88m70.686-49.896s-12.474 15.147-36.531 7.425c-.297 0-1.782 2.376.297 7.128.891 1.485 14.256 5.643 25.245 5.346-7.128 4.752-21.384 10.098-24.651 10.989 0 .297 23.76.297 27.621 15.147-15.741-2.97-30.888.891-32.076 3.861-3.564 8.91 5.346 14.256 5.346 14.256h51.084c-1.485-7.128 1.782-24.057-7.722-38.313-4.455-5.94-8.91-18.711-8.613-25.839m68.013-64.746c-3.861 4.752-19.305-3.861-23.76-7.722-8.316-6.831-21.384-17.523-24.651-27.918-2.079-7.128-5.049-32.373-5.94-39.798s-2.079-15.741-5.94-20.79c-4.455-5.94-11.583-10.395-17.523-5.94 9.504 3.564 13.959 12.177 16.929 22.572 2.97 10.098 3.564 21.384 3.861 27.324 1.188 18.711-1.188 36.531 3.564 54.648 6.831 21.087 13.662 43.956-13.068 48.114 0 0-10.692 12.771-18.414 13.959-8.316 1.485-16.929 0-24.948-2.376-.594-.297-3.267 2.376-7.425 2.97-14.85 2.079-22.275-12.771-24.948-15.741-12.474-13.068-26.433-19.305-29.7-21.681-7.128-5.346-14.553-8.019-19.305-15.741-3.861-6.237-8.613-13.959-10.395-21.087s-4.455-18.711-5.049-35.64c-.297-13.068-6.237-8.91-5.643 6.534.891 23.463 9.207 42.471 9.504 68.904 0 8.316.297 14.256-3.861 21.681-1.782 3.564-4.158 8.019-8.019 9.504-9.207 3.861-16.038-.891-22.572-7.128-13.959-14.553-22.572-29.997-33.561-46.926-2.079-3.267-4.158-6.534-4.752-10.395-.891-6.237 2.97-12.177 5.94-17.82 6.831-11.88 6.534-31.185 13.068-43.659 6.534-12.177 16.632-17.82 29.997-21.384 6.237-1.485 12.771-1.485 18.711-3.267 4.752-1.485 9.207-3.267 13.068-6.534 24.651-19.305 45.144-26.136 71.874-29.403 2.376-.297 11.88-1.485 17.523-5.94C187.359.076 206.07.67 218.544 8.095c4.752 2.673 17.523 13.068 21.087 17.226 10.692 12.771 16.929 24.948 24.354 33.561 3.861 4.455 12.474 8.91 13.365 16.632 1.188 10.098 0 19.305-.297 29.7-.297 9.801 6.831 29.106-1.485 39.501M95.883 95.71c3.564-2.376 8.019-1.485 12.474-2.079 2.97-.297 2.079-5.643-.297-6.534-9.504-3.861-15.741 1.782-19.008 6.534a25.54 25.54 0 0 0-3.861 17.523c.297 2.97 1.782 2.376 1.485-.297-.891-4.752 4.455-12.177 9.207-15.147m15.147 12.771c-1.188-1.188-2.97-.891-4.455-.594-2.079.297-3.861 1.188-5.049 2.673-2.376 3.564-.594 8.91 5.643 7.128 4.158-1.188 8.91-3.861 3.861-9.207m7.425-.891-7.425-1.188c.594 1.188 4.752 3.267 5.346 4.752 3.564 9.801-5.049 12.474-10.692 12.474-6.237.297-7.722-3.267-9.504-6.534-.297-.297 4.455-7.722 4.158-8.019s-3.861 4.752-3.861 4.455c-.891 2.079-6.237 6.534-5.346 10.692 1.485 5.049 8.613 8.613 19.602 5.643 6.534-1.782 11.583-4.752 12.474-11.583.594-3.564-.594-8.91-4.752-10.692m83.457 86.427c-3.267.297-6.534.594-10.098 1.782-5.049 2.079-9.801 5.049-14.85 6.831l-2.97.891c4.455.891 8.613 1.188 13.068.891 4.752-.297 7.425-2.079 10.395-5.346 1.485-1.485 2.97-3.267 4.455-5.049m-31.779-87.912c-4.455-3.564-10.395-10.395-13.365-15.147s-2.673-11.286-3.267-16.632c-1.485-12.771 7.425-35.64 7.425-35.937-.297-.891-12.474 2.079-14.553 9.801-.594 2.376.891 4.455-1.485 4.158-1.188 0-7.128-16.038-8.019-16.632-.594-.297-7.425 7.128-5.643 20.493-1.188-1.485-13.068-11.286-29.7-7.128-.891.297 18.414 8.019 24.057 18.414-5.643-5.346-20.196-.891-21.978 4.158 8.613 1.782 20.79 8.91 23.76 12.177 4.752 5.346 5.94 10.098 7.128 17.226 1.485 10.098 2.673 17.82 1.782 27.621-3.267 29.997-5.643 48.114 5.346 64.746 2.97 3.861 5.049 5.049 8.019 6.831 8.91 3.267 17.82 1.188 26.73-2.079 4.752-1.782 8.91-4.158 13.365-5.94-3.267-3.861-10.989 0-13.662.594-2.97.594-20.79 2.376-22.572-15.741s12.474-18.414 15.741-18.414 9.801-1.188 12.771-4.455c3.267-3.564 15.444-10.395 23.463 2.079 6.831 10.989 2.97 26.73-3.267 27.027-7.128.297-9.504 4.752-10.395 8.316a37.6 37.6 0 0 1 8.316-1.782c5.049-.297 10.395.297 14.553-3.564 3.564-3.564 6.237-9.801 6.534-14.85.297-8.613-.594-16.632-5.346-24.354-6.534-14.553-36.531-33.561-45.738-40.986m27.621 67.122c-2.673 1.485-6.237.297-8.019-1.485-1.188-1.188-3.267.891-2.079 2.079 2.673 2.376 5.94 3.564 11.286 2.079 3.564-.891 6.831-5.346 5.049-9.504-.594-1.485-3.564-.594-3.267 1.188.297 2.673-.891 4.455-2.97 5.643m-26.433 8.613c-2.673.891-6.237 0-7.722-2.079-1.188-1.485-3.564 0-2.376 1.485 1.188 6.237 18.414 8.316 18.414-5.049 0-1.782-2.97-1.782-2.673 0 0 3.564-2.673 4.752-5.643 5.643m7.722-101.574-2.376 5.643c.297 1.485-.891 5.049.891 8.019 1.188 1.782 11.286 8.613 24.354-.297 3.267-2.376 8.019-13.959 2.376-18.711 0 0-7.425-.297-8.316-.594-.891 0-7.722.297-8.613.297.297.297 4.752 1.188 8.316 2.376 1.782.594 2.97 2.673 2.97 4.752.297 7.722-6.831 9.504-11.88 9.504-6.534 0-7.128-3.861-8.613-6.831 0-.594.891-3.267.891-4.158m1.188 1.782c.594 5.346 5.94 5.643 9.801 2.97 3.267-2.079 4.752-5.94-.891-8.316-1.485-.594-3.861-.891-5.643.297-1.485 1.188-3.564 3.564-3.267 5.049m-1.782-27.027c-2.673 1.188-5.94 10.098 1.782 7.128 6.534-2.376 11.88-3.267 18.711 1.485 4.158 2.97 4.455-.594 4.455-.594-5.049-9.504-15.741-11.88-24.948-8.019M742.258.91c-1.3.595-4.717 3.635-8.512 7.545-7.22 7.488-10.688 10.035-15.36 11.232-7.488 1.894-13.677.538-27.072-6.131-7.763-3.853-9.715-4.672-11.942-4.672-2.439-.051-2.816.109-3.904 1.74-1.575 2.279-2.119 6.51-1.632 12.8.435 6.893 1.85 12.647 6.297 26.157 4.34 13.242 5.479 17.908 5.587 23.008.11 5.101-1.03 8.468-3.635 11.124-2.982 2.93-5.587 3.744-19.046 5.97-20.73 3.47-34.131 7.431-46.88 13.78-25.287 12.646-44.333 35.162-56.218 66.522-3.033 8.032-5.26 15.468-10.093 33.804-6.29 23.936-6.835 25.127-16.492 35.22-12.538 13.132-22.03 19.264-44.007 28.377-11.283 4.672-16.166 7.38-19.75 10.855-4.832 4.665-6.675 9.158-7.38 17.632-.812 10.259 4.935 18.61 17.153 24.908 2.547 1.3 6.182 2.816 8.128 3.31 5.056 1.298 9.228.543 9.228-1.684 0-.435-2.547-3.475-5.644-6.784-7.866-8.3-9.767-12.698-7.706-18.125 1.683-4.288 9.12-10.144 17.965-14.105 4.23-1.901 29.139-11.828 34.726-13.888 14.055-5.159 20.186-4.941 27.399 1.139l2.604 2.17 53.07-.11 53.12-.166-.16-4.064c-.487-10.585-3.258-12.697-17.633-13.517-4.07-.21-7.597-.537-7.705-.704-.493-.435 1.625-5.427 5.152-12.37 6.297-12.314 14.924-24.04 19.859-26.913 2.227-1.305 2.822-1.408 6.893-1.197 5.1.276 7.974 1.472 10.579 4.455 2.176 2.496 2.771 4.557 3.635 12.857.544 5.05 1.14 7.924 2.387 11.072 6.189 16 24.64 33.696 34.944 33.421 3.527-.051 5.101-1.139 7.053-4.934 1.74-3.418 1.958-7.27.602-9.933-.493-.973-3.31-4.23-6.19-7.27-12.863-13.35-16.818-23.93-16.818-44.98 0-21.376 4.179-37.062 13.35-49.977 1.3-1.843 5.696-6.944 9.766-11.392 12.967-14.163 15.514-19.648 15.514-33.267-.051-7.866-.595-12.045-2.874-20.506-3.852-14.598-2.547-21.651 5.588-30.771 5.536-6.24 6.022-8.41 4.07-18.771-2.17-11.341-2.982-16.333-4.122-26.266-1.465-12.48-2.553-15.245-6.4-16.87-2.393-1.03-4.89-.922-7.488.268"></path></svg></svg>